<?xml version="1.0" encoding="utf-8"?>
<!-- Generator: Adobe Illustrator 23.0.2, SVG Export Plug-In . SVG Version: 6.00 Build 0)  -->
<svg version="1.0" id="Layer_1" xmlns="http://www.w3.org/2000/svg" xmlns:xlink="http://www.w3.org/1999/xlink" x="0px" y="0px"
	 width="90px" height="100px" viewBox="0 0 90 100" style="enable-background:new 0 0 90 100;" xml:space="preserve">
<style type="text/css">
	.st0{fill:none;stroke:#484F59;stroke-width:3;stroke-miterlimit:10;}
	.st1{fill:#D54533;stroke:#484F59;stroke-width:3;stroke-miterlimit:10;}
	.st2{fill:none;stroke:#FFFFFF;stroke-width:3;}
</style>
<polygon class="st0" points="44.24,12.3 50.75,9.61 55.75,14.59 62.81,14.59 65.5,21.1 72.03,23.82 72.03,30.87 77.02,35.86 
	74.33,42.39 77.02,48.92 72.03,53.91 72.03,60.96 65.5,63.67 62.81,70.18 55.75,70.18 50.75,75.19 44.24,72.48 37.7,75.19 
	32.72,70.18 25.66,70.18 22.95,63.67 16.42,60.96 16.42,53.91 11.43,48.92 14.14,42.39 11.43,35.86 16.42,30.87 16.42,23.82 
	22.95,21.1 25.66,14.59 32.72,14.59 37.7,9.61 "/>
<circle class="st1" cx="44.24" cy="42.39" r="18.84"/>
<polyline class="st0" points="64.91,65.13 64.91,96.6 43.71,84.14 23.56,96.6 23.56,65.3 "/>
<polyline class="st0" points="23.56,19.64 23.56,1.98 64.91,1.98 64.91,19.64 "/>
<line class="st2" x1="44.24" y1="35.8" x2="44.24" y2="48.98"/>
<line class="st2" x1="50.83" y1="42.39" x2="37.62" y2="42.39"/>
</svg>
