<?xml version="1.0" encoding="utf-8"?>
<!-- Generator: Adobe Illustrator 23.0.2, SVG Export Plug-In . SVG Version: 6.00 Build 0)  -->
<svg version="1.1" baseProfile="tiny" id="Layer_1" xmlns="http://www.w3.org/2000/svg" xmlns:xlink="http://www.w3.org/1999/xlink"
	 x="0px" y="0px" viewBox="0 0 75 75" xml:space="preserve">
<g>
	<g>
		<g>
			<path fill="none" stroke="#484F59" stroke-width="3" stroke-linecap="round" stroke-linejoin="round" stroke-miterlimit="10" d="
				M2.47,7.67l3.69,3.7l5.49-5.49L7.96,2.18C7.72,1.93,7.25,2.01,6.92,2.34L2.64,6.63C2.3,6.96,2.23,7.43,2.47,7.67z"/>
			
				<polyline fill="none" stroke="#484F59" stroke-width="3" stroke-linecap="round" stroke-linejoin="round" stroke-miterlimit="10" points="
				34.61,28.83 11.66,5.87 6.16,11.37 29.11,34.31 			"/>
			
				<polyline fill="none" stroke="#484F59" stroke-width="3" stroke-linecap="round" stroke-linejoin="round" stroke-miterlimit="10" points="
				39.36,44.57 61.83,67.03 67.32,61.54 44.61,38.83 			"/>
		</g>
		<path fill="none" stroke="#484F59" stroke-width="3" stroke-linecap="round" stroke-linejoin="round" stroke-miterlimit="10" d="
			M64.11,63.82c-0.98,0.98-1.76,2.05-2.35,3.14l9.87,4.38l-4.38-9.87C66.16,62.07,65.09,62.84,64.11,63.82z"/>
		<g>
			
				<rect x="7.24" y="7.51" transform="matrix(0.7071 -0.7071 0.7071 0.7071 -4.4016 11.0817)" fill="none" stroke="#484F59" stroke-width="3" stroke-linecap="round" stroke-linejoin="round" stroke-miterlimit="10" width="7.87" height="6.69"/>
		</g>
		<path fill="none" stroke="#484F59" stroke-width="3" stroke-miterlimit="10" d="M70.2,68.12c-0.3,0.26-0.6,0.51-0.89,0.8
			c-0.32,0.32-0.62,0.66-0.89,1l3.22,1.42L70.2,68.12z"/>
	</g>
	<g>
		
			<rect x="-5.41" y="29.69" transform="matrix(0.7071 -0.7071 0.7071 0.7071 -15.1115 36.8948)" fill="none" stroke="#484F59" stroke-width="3" stroke-miterlimit="10" width="84.78" height="13.99"/>
		<line fill="none" stroke="#484F59" stroke-width="3" stroke-miterlimit="10" x1="6.86" y1="58.12" x2="10.75" y2="62.02"/>
		<line fill="none" stroke="#484F59" stroke-width="3" stroke-miterlimit="10" x1="11.05" y1="53.92" x2="13.15" y2="56.02"/>
		<line fill="none" stroke="#484F59" stroke-width="3" stroke-miterlimit="10" x1="15.25" y1="49.73" x2="19.15" y2="53.62"/>
		<line fill="none" stroke="#484F59" stroke-width="3" stroke-miterlimit="10" x1="19.45" y1="45.53" x2="21.54" y2="47.63"/>
		<line fill="none" stroke="#484F59" stroke-width="3" stroke-miterlimit="10" x1="23.64" y1="41.33" x2="27.54" y2="45.23"/>
		<line fill="none" stroke="#484F59" stroke-width="3" stroke-miterlimit="10" x1="27.84" y1="37.14" x2="29.94" y2="39.24"/>
		<line fill="none" stroke="#484F59" stroke-width="3" stroke-miterlimit="10" x1="32.03" y1="32.94" x2="35.93" y2="36.84"/>
		<line fill="none" stroke="#484F59" stroke-width="3" stroke-miterlimit="10" x1="36.23" y1="28.75" x2="38.33" y2="30.84"/>
		<line fill="none" stroke="#484F59" stroke-width="3" stroke-miterlimit="10" x1="40.43" y1="24.55" x2="44.32" y2="28.45"/>
		<line fill="none" stroke="#484F59" stroke-width="3" stroke-miterlimit="10" x1="44.62" y1="20.35" x2="46.72" y2="22.45"/>
		<line fill="none" stroke="#484F59" stroke-width="3" stroke-miterlimit="10" x1="48.82" y1="16.16" x2="52.72" y2="20.05"/>
		<line fill="none" stroke="#484F59" stroke-width="3" stroke-miterlimit="10" x1="53.02" y1="11.96" x2="55.11" y2="14.06"/>
		<line fill="none" stroke="#484F59" stroke-width="3" stroke-miterlimit="10" x1="57.21" y1="7.76" x2="61.11" y2="11.66"/>
	</g>
</g>
</svg>
