<?xml version="1.0" encoding="utf-8"?>
<!-- Generator: Adobe Illustrator 23.0.2, SVG Export Plug-In . SVG Version: 6.00 Build 0)  -->
<svg version="1.1" baseProfile="tiny" id="Layer_1" xmlns="http://www.w3.org/2000/svg" xmlns:xlink="http://www.w3.org/1999/xlink"
	 x="0px" y="0px" viewBox="0 0 75 75" xml:space="preserve">
<g>
	<g>
		<path fill="none" stroke="#484F59" stroke-width="3" stroke-linecap="round" stroke-linejoin="round" d="M17.43,12.47h5.67
			c3.21,0,5.82,2.6,5.82,5.82"/>
		<path fill="none" stroke="#484F59" stroke-width="3" stroke-linecap="round" stroke-linejoin="round" d="M12.9,61.49
			c0,5.58,3.91,9.56,8.74,9.56h5.59c4.83,0,8.74-3.91,8.74-8.73V12.26c0-4.82-3.91-8.74-8.74-8.74l0,0c-4.82,0-8.74,3.91-8.74,8.74"
			/>
		<path fill="none" stroke="#484F59" stroke-width="3" stroke-linecap="round" stroke-linejoin="round" d="M17.43,24.14
			c-3.22,0-5.82-2.61-5.82-5.82l0,0c0-3.22,2.61-5.82,5.82-5.82h1.22"/>
		<path fill="none" stroke="#484F59" stroke-width="3" stroke-linecap="round" stroke-linejoin="round" d="M12.75,37.21h0.11
			c-3.65,0-6.61-2.96-6.61-6.61l0,0c0-3.65,2.96-6.61,6.61-6.61h2.84"/>
		<path fill="none" stroke="#484F59" stroke-width="3" stroke-linecap="round" stroke-linejoin="round" d="M22.9,60.66h-9.92
			c-3.32,0-6.02-2.7-6.02-6.02l0,0c0-3.33,2.7-6.02,6.02-6.02"/>
		<path fill="none" stroke="#484F59" stroke-width="3" stroke-linecap="round" stroke-linejoin="round" d="M16,48.62H10.2
			c-3.09,0-5.6-2.5-5.6-5.59l0,0c0-3.09,2.78-5.74,5.87-5.74h2.87"/>
		<path fill="none" stroke="#484F59" stroke-width="3" stroke-linecap="round" stroke-linejoin="round" d="M13.34,54.68h12.28
			c2.09,0,3.78-1.69,3.78-3.78V39.18c0-2.09-1.69-3.78-3.78-3.78"/>
		<path fill="none" stroke="#484F59" stroke-width="3" stroke-linecap="round" stroke-linejoin="round" d="M29.39,49.21v12.51
			c0,2.02-1.64,3.66-3.66,3.66l0,0"/>
		<path fill="none" stroke="#484F59" stroke-width="3" stroke-linecap="round" stroke-linejoin="round" d="M18.22,17.69h2.05
			c1.57,0,2.84,1.27,2.84,2.83v7.56c0,1.56-1.27,2.84-2.84,2.84h-7.71"/>
		<path fill="none" stroke="#484F59" stroke-width="3" stroke-linecap="round" stroke-linejoin="round" d="M23.58,24.36h2.91
			c1.57,0,2.84,1.27,2.84,2.84"/>
		<path fill="none" stroke="#484F59" stroke-width="3" stroke-linecap="round" stroke-linejoin="round" d="M29.39,39.57v0.94
			c0,1.57-1.27,2.83-2.84,2.83H12.55"/>
		<path fill="none" stroke="#484F59" stroke-width="3" stroke-linecap="round" stroke-linejoin="round" d="M21.05,48.52
			c1.57,0,2.83,1.27,2.83,2.83v2.91"/>
		<path fill="none" stroke="#484F59" stroke-width="3" stroke-linecap="round" stroke-linejoin="round" d="M18.53,37.34
			c1.56,0,2.84,1.27,2.84,2.83v2.91"/>
		<path fill="none" stroke="#484F59" stroke-width="3" stroke-linecap="round" stroke-linejoin="round" d="M17.59,69.15
			c0-1.57,1.27-2.83,2.83-2.83"/>
	</g>
	<g>
		<path fill="none" stroke="#484F59" stroke-width="3" stroke-linecap="round" stroke-linejoin="round" d="M54.88,12.57h-5.67
			c-3.22,0-5.83,2.6-5.83,5.82"/>
		<path fill="none" stroke="#484F59" stroke-width="3" stroke-linecap="round" stroke-linejoin="round" d="M59.41,61.49
			c0,5.58-3.91,9.56-8.74,9.56h-5.59c-4.83,0-8.74-3.91-8.74-8.73V12.26c0-4.82,3.91-8.74,8.74-8.74l0,0c4.82,0,8.74,3.91,8.74,8.74
			"/>
		<path fill="none" stroke="#484F59" stroke-width="3" stroke-linecap="round" stroke-linejoin="round" d="M54.88,24.14
			c3.22,0,5.83-2.61,5.83-5.82l0,0c0-3.22-2.61-5.82-5.83-5.82h-1.22"/>
		<path fill="none" stroke="#484F59" stroke-width="3" stroke-linecap="round" stroke-linejoin="round" d="M59.56,37.21h-0.11
			c3.65,0,6.61-2.96,6.61-6.61l0,0c0-3.65-2.96-6.61-6.61-6.61h-2.83"/>
		<path fill="none" stroke="#484F59" stroke-width="3" stroke-linecap="round" stroke-linejoin="round" d="M49.41,60.66h9.92
			c3.33,0,6.02-2.7,6.02-6.02l0,0c0-3.33-2.7-6.02-6.02-6.02"/>
		<path fill="none" stroke="#484F59" stroke-width="3" stroke-linecap="round" stroke-linejoin="round" d="M56.31,48.62h5.81
			c3.09,0,5.6-2.5,5.6-5.59l0,0c0-3.09-2.78-5.74-5.87-5.74h-2.87"/>
		<path fill="none" stroke="#484F59" stroke-width="3" stroke-linecap="round" stroke-linejoin="round" d="M58.97,54.68H46.7
			c-2.09,0-3.78-1.69-3.78-3.78V39.18c0-2.09,1.69-3.78,3.78-3.78"/>
		<path fill="none" stroke="#484F59" stroke-width="3" stroke-linecap="round" stroke-linejoin="round" d="M42.92,49.21v12.51
			c0,2.02,1.64,3.66,3.66,3.66l0,0"/>
		<path fill="none" stroke="#484F59" stroke-width="3" stroke-linecap="round" stroke-linejoin="round" d="M54.09,17.69h-2.04
			c-1.56,0-2.83,1.27-2.83,2.83v7.56c0,1.56,1.27,2.84,2.83,2.84h7.71"/>
		<path fill="none" stroke="#484F59" stroke-width="3" stroke-linecap="round" stroke-linejoin="round" d="M48.73,24.36h-2.92
			c-1.57,0-2.83,1.27-2.83,2.84"/>
		<path fill="none" stroke="#484F59" stroke-width="3" stroke-linecap="round" stroke-linejoin="round" d="M42.92,39.57v0.94
			c0,1.57,1.27,2.83,2.83,2.83h14.01"/>
		<path fill="none" stroke="#484F59" stroke-width="3" stroke-linecap="round" stroke-linejoin="round" d="M51.26,48.52
			c-1.57,0-2.84,1.27-2.84,2.83v2.91"/>
		<path fill="none" stroke="#484F59" stroke-width="3" stroke-linecap="round" stroke-linejoin="round" d="M53.78,37.34
			c-1.57,0-2.84,1.27-2.84,2.83v2.91"/>
		<path fill="none" stroke="#484F59" stroke-width="3" stroke-linecap="round" stroke-linejoin="round" d="M54.72,69.15
			c0-1.57-1.27-2.83-2.83-2.83"/>
	</g>
</g>
</svg>
