<?xml version="1.0" encoding="utf-8"?>
<!-- Generator: Adobe Illustrator 23.0.2, SVG Export Plug-In . SVG Version: 6.00 Build 0)  -->
<svg version="1.0" id="Layer_1" xmlns="http://www.w3.org/2000/svg" xmlns:xlink="http://www.w3.org/1999/xlink" x="0px" y="0px"
	 width="100px" height="100px" viewBox="0 0 100 100" style="enable-background:new 0 0 100 100;" xml:space="preserve">
<style type="text/css">
	.st0{fill:#D54533;}
	.st1{fill:none;stroke:#484F59;stroke-width:3;stroke-linecap:round;stroke-linejoin:round;stroke-miterlimit:10;}
	.st2{fill:none;stroke:#484F59;stroke-width:3;stroke-miterlimit:10;}
</style>
<rect x="12.33" y="55.8" transform="matrix(0.7071 -0.7071 0.7071 0.7071 -31.3908 45.7072)" class="st0" width="54.3" height="9.9"/>
<rect x="69.34" y="16.83" transform="matrix(0.7071 -0.7071 0.7071 0.7071 7.5734 61.8453)" class="st0" width="18.2" height="9.9"/>
<g>
	<g>
		<g>
			<path class="st1" d="M13.2,94l4.7-4.7l-7-7L6.2,87c-0.3,0.3-0.2,0.9,0.2,1.4l5.4,5.4C12.3,94.2,12.8,94.4,13.2,94z"/>
			<line class="st1" x1="81.6" y1="11.5" x2="65.2" y2="28"/>
			<line class="st1" x1="72.3" y1="34.9" x2="88.6" y2="18.6"/>
			<polyline class="st1" points="53.6,39.6 10.9,82.3 17.9,89.3 61.3,45.9 			"/>
		</g>
		<path class="st1" d="M84.5,15.6c1.3,1.3,2.6,2.2,3.9,3L94,6l-12.5,5.6C82.2,13,83.2,14.3,84.5,15.6z"/>
		<g>
			
				<rect x="12.86" y="77.86" transform="matrix(0.7071 -0.7071 0.7071 0.7071 -53.6137 36.385)" class="st1" width="8.5" height="10.1"/>
		</g>
		<path class="st2" d="M89.9,7.9c0.3,0.3,0.7,0.7,1,1c0.5,0.5,0.8,0.8,1.3,1L94,5.8L89.9,7.9z"/>
	</g>
	<path class="st2" d="M36.2,71.2c1,0.8,2.3,1.6,3.6,2.2l-0.2,3.7l7.8,2.1L49,76c1.5,0.1,2.9,0.1,4.4,0l1.6,3l7.8-2.1l-0.2-3.5
		c1.4-0.7,2.5-1.4,3.9-2.3l2.8,1.8l5.8-5.8l-2-3.1c0.8-1.3,1.5-2.4,2-3.8l3.6,0.1l2.1-7.8L77,50.9c0-1.4,0-2.5-0.2-3.9l3.6-1.7
		l-2.1-7.8l-4.4,0.2c-0.6-1-1.3-2-2-2.9l2.4-3.8l-5.8-5.8l-4,2.8c-0.9-0.5-1.7-1-2.8-1.4l0.2-4.8l-7.8-2.1l-2.4,4.7
		c-0.9,0-1.8,0-2.8,0l-2.3-4.6l-7.8,2.1l0.2,5.3c-0.8,0.3-1.6,0.9-2.3,1.4l-4.4-2.8l-5.8,5.8l2.8,4.4c-0.6,0.8-1,1.7-1.4,2.5
		L23,37.9l-2,7.8l4.3,2.2c-0.1,1-0.1,2.2,0,3.2l-4.1,2.1l2.1,7.8l4.4-0.2c0.5,1.2,1,2.2,1.8,3.2 M40.3,52.8c-0.9-3.7,0-7.8,2.9-10.7
		c4.4-4.4,11.5-4.4,15.9,0s4.4,11.5,0,15.9c-3.2,3.2-8.1,4.1-12.1,2.4"/>
	<g>
		<g>
			<path class="st1" d="M13.2,94l4.7-4.7l-7-7L6.2,87c-0.3,0.3-0.2,0.9,0.2,1.4l5.4,5.4C12.3,94.2,12.8,94.4,13.2,94z"/>
			<polyline class="st1" points="47.7,45.5 10.9,82.3 17.9,89.3 54.7,52.5 			"/>
		</g>
		<g>
			
				<rect x="12.86" y="77.86" transform="matrix(0.7071 -0.7071 0.7071 0.7071 -53.6137 36.385)" class="st1" width="8.5" height="10.1"/>
		</g>
	</g>
</g>
</svg>
