<?xml version="1.0" encoding="utf-8"?>
<!-- Generator: Adobe Illustrator 23.0.2, SVG Export Plug-In . SVG Version: 6.00 Build 0)  -->
<svg version="1.0" id="Layer_1" xmlns="http://www.w3.org/2000/svg" xmlns:xlink="http://www.w3.org/1999/xlink" x="0px" y="0px"
	 width="100px" height="100px" viewBox="0 0 100 100" style="enable-background:new 0 0 100 100;" xml:space="preserve">
<style type="text/css">
	.st0{fill:none;stroke:#484F59;stroke-width:3;}
	.st1{fill:none;stroke:#D54533;stroke-width:3;}
	.st2{fill:#D54533;stroke:#D54533;stroke-width:3;}
</style>
<path class="st0" d="M61.7,65.7c-0.3-3.8-0.1-3.5,0.3-7.9c0.6-6.1,1.8-11.8,3.4-16.5c-4.1-1.4-8-5.4-10-10.9
	C54.5,28,54,25.5,54,23.2h-2.9v0.1"/>
<path class="st0" d="M49.7,23.5v-0.1h-2.9c0,2.3-0.5,4.8-1.4,7.2c-2,5.4-6,9.5-10,10.9c1.5,4.7,2.8,10.3,3.4,16.5
	c0.4,4.4,0.5,4.1,0.3,7.9"/>
<polyline class="st0" points="62.1,97 62.1,72.4 38.7,72.4 38.7,97 "/>
<rect x="37.6" y="65.6" class="st0" width="25.3" height="7.3"/>
<path class="st0" d="M9.4,47.5c0-22.7,18.4-37.3,40.9-37.3c22.7,0,41.1,14.7,41.1,37.3"/>
<line class="st1" x1="88.2" y1="10.4" x2="12.6" y2="10.4"/>
<g>
	<rect x="87.8" y="47.2" class="st0" width="8" height="8"/>
	<rect x="4.9" y="47.2" class="st0" width="8" height="8"/>
</g>
<rect x="46.4" y="6.5" class="st2" width="8" height="8"/>
<g>
	<rect x="87.4" y="6.5" class="st2" width="8" height="8"/>
	<rect x="5.3" y="6.5" class="st2" width="8" height="8"/>
</g>
<line class="st0" x1="50.3" y1="23.2" x2="50.3" y2="46.7"/>
<circle class="st0" cx="50.3" cy="49.4" r="2.5"/>
</svg>
