<?xml version="1.0" encoding="utf-8"?>
<!-- Generator: Adobe Illustrator 23.0.2, SVG Export Plug-In . SVG Version: 6.00 Build 0)  -->
<svg version="1.0" id="Layer_1" xmlns="http://www.w3.org/2000/svg" xmlns:xlink="http://www.w3.org/1999/xlink" x="0px" y="0px"
	 width="100px" height="100px" viewBox="0 0 100 100" style="enable-background:new 0 0 100 100;" xml:space="preserve">
<style type="text/css">
	.st0{fill:none;stroke:#484F59;stroke-width:3;stroke-linejoin:round;}
	.st1{fill:none;stroke:#484F59;stroke-width:3;}
	.st2{fill:#D54533;stroke:#D54533;stroke-width:3;stroke-linejoin:round;}
	.st3{fill:none;stroke:#FFFFFF;stroke-width:3;}
	.st4{fill:none;stroke:#484F59;stroke-width:3;stroke-miterlimit:10;}
</style>
<g>
	<path class="st0" d="M51.2,94.3c0,1.6-1.3,3-3,3h-41c-1.6,0-3-1.3-3-3V7.8c0-1.6,1.3-3,3-3h41c1.6,0,3,1.3,3,3v32"/>
	<polyline class="st1" points="41.2,84.1 9.4,84.1 9.4,17.4 46,17.4 46,49.7 	"/>
	<g>
		<line class="st0" x1="19.8" y1="11.4" x2="35.6" y2="11.4"/>
	</g>
	<line class="st0" x1="26.2" y1="89.6" x2="29.2" y2="89.6"/>
	<path class="st2" d="M38.1,42.9c0,5.8-4.6,10.4-10.4,10.4s-10.4-4.6-10.4-10.4s4.6-10.4,10.4-10.4S38.1,37.1,38.1,42.9z"/>
	<g>
		<line class="st3" x1="27.7" y1="37.9" x2="27.7" y2="48"/>
		<line class="st3" x1="32.7" y1="42.9" x2="22.6" y2="42.9"/>
	</g>
	<g>
		<path class="st4" d="M96.5,70.9v-8.3l-4.9-1c-0.3-1-0.6-2.1-0.9-3l3.7-3.4l-4.3-7.3l-5.2,1.6c-0.6-0.7-1.3-1.3-2.1-1.9l1.6-5.1
			l-7.3-4.2l-3.7,4c-0.9-0.3-1.8-0.4-2.7-0.7l-1.2-5.2h-8.3l-0.9,5.3c-1,0.1-1.9,0.4-3,0.7L54,38.6l-7.3,4.2l1.5,4.8
			c-0.9,0.7-1.6,1.5-2.4,2.4l-4.5-1.5l-4.2,7.3l3.3,3c-0.4,1.2-0.7,2.4-1,3.7l-4.2,0.9v8.3l3.9,0.9c0.3,1.5,0.6,2.8,1,4.2l-2.8,2.5
			l4.2,7.3l3.4-1.2c1,1.2,2.1,2.2,3.3,3.3l-1,3.3l7.3,4.2l2.4-2.7c1.5,0.4,3,0.9,4.5,1l0.7,3.3h8.3l0.7-3.6c1.5-0.3,2.8-0.7,4.2-1.3
			l2.4,2.7l7.3-4.2l-1.2-3.9c1-0.9,1.9-1.9,2.7-3l3.9,1.2l4.2-7.3L91,75.2c0.3-1.2,0.6-2.4,0.7-3.6L96.5,70.9z M79.7,67.9
			c0,7.7-6.2,14-14,14c-7.7,0-14-6.2-14-14s6.2-14,14-14C73.3,53.9,79.7,60.2,79.7,67.9z"/>
	</g>
</g>
</svg>
