<?xml version="1.0" encoding="utf-8"?>
<!-- Generator: Adobe Illustrator 23.0.2, SVG Export Plug-In . SVG Version: 6.00 Build 0)  -->
<svg version="1.1" id="Layer_1" xmlns="http://www.w3.org/2000/svg" xmlns:xlink="http://www.w3.org/1999/xlink" x="0px" y="0px"
	 viewBox="0 0 100 100" style="enable-background:new 0 0 100 100;" xml:space="preserve">
<style type="text/css">
	.st0{fill:none;stroke:#484F59;stroke-width:3;stroke-miterlimit:10;}
	.st1{fill:none;stroke:#484F59;stroke-width:2;stroke-miterlimit:10;}
	.st2{fill:none;stroke:#484F59;stroke-width:3;stroke-linejoin:bevel;}
	.st3{fill:#D54533;stroke:#D54533;stroke-width:2;stroke-miterlimit:10;}
</style>
<g>
	<g>
		<rect x="3.3" y="3.2" class="st0" width="93.6" height="94.1"/>
		<rect x="3.3" y="3.2" class="st0" width="93.6" height="9"/>
		<line class="st1" x1="6.6" y1="7.7" x2="9.5" y2="7.7"/>
		<line class="st1" x1="11.7" y1="7.7" x2="14.6" y2="7.7"/>
		<line class="st1" x1="16.8" y1="7.7" x2="19.7" y2="7.7"/>
	</g>
	<g>
		<g>
			<g>
				<line class="st2" x1="9" y1="83.2" x2="33.3" y2="83.2"/>
				<line class="st2" x1="9" y1="89.3" x2="33.3" y2="89.3"/>
			</g>
			<rect x="9.8" y="68.5" class="st3" width="22.6" height="9"/>
		</g>
		<g>
			<g>
				<line class="st2" x1="37.9" y1="83.2" x2="62.1" y2="83.2"/>
				<line class="st2" x1="37.9" y1="89.3" x2="62.1" y2="89.3"/>
			</g>
			<rect x="38.8" y="68.5" class="st3" width="22.6" height="9"/>
		</g>
		<g>
			<g>
				<line class="st2" x1="66.9" y1="83.2" x2="91.1" y2="83.2"/>
				<line class="st2" x1="66.9" y1="89.3" x2="91.1" y2="89.3"/>
			</g>
			<rect x="67.7" y="68.5" class="st3" width="22.6" height="9"/>
		</g>
	</g>
	<rect x="3.3" y="25.1" class="st0" width="93.6" height="36.6"/>
	<g>
		<line class="st2" x1="9" y1="19" x2="33.3" y2="19"/>
	</g>
</g>
</svg>
